<mxfile host="app.diagrams.net" modified="2024-05-22T19:00:44.938Z" agent="Mozilla/5.0 (Windows NT 10.0; Win64; x64) AppleWebKit/537.36 (KHTML, like Gecko) Chrome/125.0.0.0 Safari/537.36" version="24.4.6" etag="Z9mvFv-8-W1zmtFOLRfs" type="github">
  <diagram name="Page-1" id="rCqhE17qeFyCWqsCuSyS">
    <mxGraphModel>
      <root>
        <mxCell id="0" />
        <mxCell id="1" parent="0" />
      </root>
    </mxGraphModel>
  </diagram>
</mxfile>
